<svg xmlns="http://www.w3.org/2000/svg" viewBox="0 0 24 24">
  <path d="M23.221 18.487v-2.256s-1.551-.282-1.551-.423 0-.282-.141-.282a6.366 6.366 0 0 1 .987-.987l-1.695-2.257s-1.128.846-1.41.987c-.141 0-.282-.141-.423-.141s-.564-1.41-.564-1.41h-2.258s-.282 1.41-.564 1.41c-.141 0-.282.141-.423.141-.282-.141-1.41-.987-1.41-.987l-1.548 2.256s.846.846.846 1.128c0 .141-.141.141-.141.282a11.812 11.812 0 0 1-1.41.282v2.256a7.6 7.6 0 0 1 1.405.424c0 .141.141.282.141.423-.282.282-.987.846-.987.846l1.692 2.256s1.41-.846 1.551-.987a.492.492 0 0 1 .282.141c.141 0 .423 1.41.423 1.41h2.256s.141-1.269.282-1.269.282-.141.423-.141c.141.141 1.128.987 1.128.987l2.256-2.256a11.246 11.246 0 0 1-1.128-.846c0-.141.141-.282.141-.423a8.172 8.172 0 0 1 1.833-.564Zm-5.782 1.692a2.821 2.821 0 1 1 2.821-2.821 2.829 2.829 0 0 1-2.824 2.821Zm-7.333-8.6a5.632 5.632 0 0 0 5.359-5.218A5.632 5.632 0 0 0 10.243 1a5.9 5.9 0 0 0-5.359 5.5 5.373 5.373 0 0 0 5.218 5.077Zm1.128 1.128H6.012a3.983 3.983 0 0 0-3.949 2.679c-.705 1.974-.705 1.974-1.269 3.949-.282.987 4.513 1.551 9.308 1.551 1.551 0 .564-1.269.564-2.821-.145-3.809 2.962-5.36.564-5.36Z" />
</svg>