<svg xmlns="http://www.w3.org/2000/svg" width="24" height="24" viewBox="0 0 24 24"><defs><style>.a,.b{fill:#fff;}.a{stroke:#707070;opacity:0;}.c{stroke:none;}.d{fill:none;}</style></defs><g transform="translate(-24 -338)"><g class="a" transform="translate(24 338)"><rect class="c" width="24" height="24"/><rect class="d" x="0.5" y="0.5" width="23" height="23"/></g><path class="b" d="M28.3,30.287V28.031s-1.551-.282-1.551-.423,0-.282-.141-.282a6.366,6.366,0,0,1,.987-.987L25.9,24.082s-1.128.846-1.41.987c-.141,0-.282-.141-.423-.141s-.564-1.41-.564-1.41H21.245s-.282,1.41-.564,1.41c-.141,0-.282.141-.423.141-.282-.141-1.41-.987-1.41-.987L17.3,26.338s.846.846.846,1.128c0,.141-.141.141-.141.282a11.812,11.812,0,0,1-1.41.282v2.256A7.6,7.6,0,0,1,18,30.71c0,.141.141.282.141.423-.282.282-.987.846-.987.846l1.692,2.256s1.41-.846,1.551-.987a.492.492,0,0,1,.282.141c.141,0,.423,1.41.423,1.41h2.256s.141-1.269.282-1.269.282-.141.423-.141c.141.141,1.128.987,1.128.987l2.256-2.256a11.246,11.246,0,0,1-1.128-.846c0-.141.141-.282.141-.423a8.172,8.172,0,0,1,1.833-.564Zm-5.782,1.692a2.821,2.821,0,1,1,2.821-2.821A2.829,2.829,0,0,1,22.515,31.979Zm-7.333-8.6a5.632,5.632,0,0,0,5.359-5.218A5.632,5.632,0,0,0,15.322,12.8a5.9,5.9,0,0,0-5.359,5.5A5.373,5.373,0,0,0,15.181,23.377Zm1.128,1.128H11.091a3.983,3.983,0,0,0-3.949,2.679c-.705,1.974-.705,1.974-1.269,3.949-.282.987,4.513,1.551,9.308,1.551,1.551,0,.564-1.269.564-2.821C15.6,26.056,18.707,24.505,16.309,24.505Z" transform="translate(18.921 326.2)"/></g></svg>